<?xml version="1.0" standalone="no"?><!DOCTYPE svg PUBLIC "-//W3C//DTD SVG 1.1//EN" "http://www.w3.org/Graphics/SVG/1.1/DTD/svg11.dtd"><svg t="1531722363648" class="icon" style="" viewBox="0 0 1024 1024" version="1.1" xmlns="http://www.w3.org/2000/svg" p-id="1189" xmlns:xlink="http://www.w3.org/1999/xlink" width="200" height="200"><defs><style type="text/css"></style></defs><path d="M862.847693 570.474786 336.575642 570.474786c-32.292474 0-58.474786-26.182312-58.474786-58.474786s26.182312-58.474786 58.474786-58.474786l526.272052 0c32.292474 0 58.474786 26.182312 58.474786 58.474786S895.140167 570.474786 862.847693 570.474786z" p-id="1190" fill="#cdcdcd"></path><path d="M862.847693 862.847693 336.575642 862.847693c-32.292474 0-58.474786-26.182312-58.474786-58.474786 0-32.292474 26.182312-58.474786 58.474786-58.474786l526.272052 0c32.292474 0 58.474786 26.182312 58.474786 58.474786C921.322479 836.665381 895.140167 862.847693 862.847693 862.847693z" p-id="1191" fill="#cdcdcd"></path><path d="M862.847693 278.100856 336.575642 278.100856c-32.292474 0-58.474786-26.182312-58.474786-58.474786s26.182312-58.474786 58.474786-58.474786l526.272052 0c32.292474 0 58.474786 26.182312 58.474786 58.474786S895.140167 278.100856 862.847693 278.100856z" p-id="1192" fill="#cdcdcd"></path><path d="M161.152307 219.627093m-58.474786 0a57.143 57.143 0 1 0 116.949572 0 57.143 57.143 0 1 0-116.949572 0Z" p-id="1193" fill="#cdcdcd"></path><path d="M161.152307 512m-58.474786 0a57.143 57.143 0 1 0 116.949572 0 57.143 57.143 0 1 0-116.949572 0Z" p-id="1194" fill="#cdcdcd"></path><path d="M161.152307 804.372907m-58.474786 0a57.143 57.143 0 1 0 116.949572 0 57.143 57.143 0 1 0-116.949572 0Z" p-id="1195" fill="#cdcdcd"></path></svg>