<?xml version="1.0" standalone="no"?><!DOCTYPE svg PUBLIC "-//W3C//DTD SVG 1.1//EN" "http://www.w3.org/Graphics/SVG/1.1/DTD/svg11.dtd"><svg t="1511954461858" class="icon" style="" viewBox="0 0 1024 1024" version="1.1" xmlns="http://www.w3.org/2000/svg" p-id="14740" xmlns:xlink="http://www.w3.org/1999/xlink" width="200" height="200"><defs><style type="text/css"></style></defs><path d="M988.522 470.199h-806.253l205.882-198.198c5.27-5.271 5.27-13.818 0-19.088l-41.355-41.355c-5.271-5.27-13.818-5.27-19.088 0l-259.175 249.509c-0.299 0.252-0.595 0.511-0.875 0.792l-1.384 1.384-39.971 38.479c-2.821 2.822-4.115 6.584-3.916 10.279-0.206 3.702 1.089 7.474 3.915 10.301l41.355 39.862c0.267 0.265 0.544 0.509 0.827 0.747l259.224 249.549c5.271 5.272 13.817 5.272 19.088 0l41.355-41.355c5.27-5.27 5.27-13.815 0-19.088l-203.951-196.341h804.321c7.454 0 13.497-6.042 13.497-13.497v-58.488c0-7.453-6.041-13.497-13.497-13.497z" fill="#abaaba" p-id="14741"></path></svg>