<?xml version="1.0" standalone="no"?><!DOCTYPE svg PUBLIC "-//W3C//DTD SVG 1.1//EN" "http://www.w3.org/Graphics/SVG/1.1/DTD/svg11.dtd"><svg t="1511957849269" class="icon" style="" viewBox="0 0 1024 1024" version="1.1" xmlns="http://www.w3.org/2000/svg" p-id="50237" xmlns:xlink="http://www.w3.org/1999/xlink" width="200" height="200"><defs><style type="text/css"></style></defs><path d="M772 832H252c-33.1 0-60-26.9-60-60V371.6c0-33.1 26.9-60 60-60h81.2c6 0 11.6-2.6 15.4-7.2l42-50.7c11.4-13.8 28.3-21.7 46.2-21.7h150.4c17.9 0 34.8 7.9 46.2 21.7l42 50.7c3.8 4.6 9.4 7.2 15.4 7.2H772c33.1 0 60 26.9 60 60V772c0 33.1-26.9 60-60 60zM252 351.6c-11 0-20 9-20 20V772c0 11 9 20 20 20h520c11 0 20-9 20-20V371.6c0-11-9-20-20-20h-81.2c-17.9 0-34.8-7.9-46.2-21.7l-42-50.7c-3.8-4.6-9.4-7.2-15.4-7.2H436.8c-6 0-11.6 2.6-15.4 7.2l-42 50.7c-11.4 13.8-28.3 21.7-46.2 21.7H252z" fill="" p-id="50238"></path><path d="M512 752c-99.3 0-180-80.7-180-180s80.7-180 180-180 180 80.7 180 180-80.7 180-180 180z m0-320c-77.2 0-140 62.8-140 140s62.8 140 140 140 140-62.8 140-140-62.8-140-140-140z" fill="" p-id="50239"></path><path d="M422 572h-20c0-60.7 49.3-110 110-110v20c-49.6 0-90 40.4-90 90z" fill="" p-id="50240"></path></svg>