<?xml version="1.0" standalone="no"?><!DOCTYPE svg PUBLIC "-//W3C//DTD SVG 1.1//EN" "http://www.w3.org/Graphics/SVG/1.1/DTD/svg11.dtd"><svg t="1512017285591" class="icon" style="" viewBox="0 0 1024 1024" version="1.1" xmlns="http://www.w3.org/2000/svg" p-id="74888" xmlns:xlink="http://www.w3.org/1999/xlink" width="200" height="200"><defs><style type="text/css"></style></defs><path d="M740.1623703703704 123.6385185185186c112.62482962962963 0 201.94797037037037 88.35223703703703 201.94797037037037 201.94797037037037 0 157.2864-162.1409185185185 304.86376296296294-408.7504592592593 528.1716148148148l-21.35988148148148 19.418074074074074-21.35988148148148-19.418074074074074C244.0305777777778 630.4502518518518 81.8896592592593 482.8728888888889 81.8896592592593 325.5864888888889c0-112.62482962962963 88.35223703703703-201.94797037037037 201.94797037037037-201.94797037037037 64.07964444444444 0 127.18838518518517 29.127111111111113 169.90814814814814 78.6432l59.225125925925916 68.93416296296296 59.225125925925916-68.93416296296296C612.9739851851851 153.73653333333334 677.0536296296295 123.6385185185186 740.1623703703704 123.6385185185186m0-77.6722962962963c-88.35223703703703 0-172.82085925925927 40.77795555555556-228.16237037037035 105.8285037037037-55.34151111111111-64.07964444444444-139.81013333333334-105.8285037037037-228.16237037037035-105.8285037037037-156.31549629629632 0-279.6202666666667 122.33386666666665-279.6202666666667 279.6202666666667C4.217362962963023 516.8545185185186 177.03822222222226 674.1409185185184 438.2113185185185 911.0414222222222L512 978.0337777777779l73.78868148148148-66.99235555555556C846.9617777777778 673.1700148148147 1019.782637037037 516.8545185185186 1019.782637037037 325.5864888888889 1019.782637037037 169.27099259259268 897.4487703703703 45.9662222222222 740.1623703703704 45.9662222222222z" fill="" p-id="74889"></path></svg>