<?xml version="1.0" standalone="no"?><!DOCTYPE svg PUBLIC "-//W3C//DTD SVG 1.1//EN" "http://www.w3.org/Graphics/SVG/1.1/DTD/svg11.dtd"><svg t="1511935432938" class="icon" style="" viewBox="0 0 1024 1024" version="1.1" xmlns="http://www.w3.org/2000/svg" p-id="2023" xmlns:xlink="http://www.w3.org/1999/xlink" width="200" height="200"><defs><style type="text/css"></style></defs><path d="M1010.742 448.239l-138.992-109.515v-121.009c0-20.452-16.391-37.070-36.59-37.070h-69.75c-20.201 0-36.56 16.618-36.56 37.070v16.678l-171.53-131.474c-0.72-0.542-1.466-1.024-2.239-1.453-12.629-8.59-27.379-13.204-42.721-13.204-16.006 0-31.315 4.916-44.368 14.233-0.146 0.154-0.358 0.332-0.566 0.426l-453.422 345.317c-12.067 8.899-14.694 25.908-5.99 38.065 8.763 12.153 25.59 14.897 37.63 6.064l453.036-345.141c0.092-0.031 0.209-0.092 0.3-0.151 3.905-2.805 8.551-4.315 13.381-4.315 4.829 0 9.471 1.508 13.346 4.315 0.178 0.121 0.386 0.207 0.597 0.332l452.767 344.961c12.066 8.833 28.901 6.089 37.634-6.064 8.732-12.158 6.105-29.166-5.963-38.065zM862.9 504.759l-314.22-242.892c-0.062-0.062-0.183-0.116-0.212-0.148-10.603-7.66-23.090-11.705-36.108-11.764-12.964 0-25.422 4.076-35.994 11.643-0.091 0.124-0.207 0.154-0.331 0.271l-314.188 242.892c-7.029 5.188-11.142 13.392-11.142 22.051v307.529c0 52.604 42.309 95.344 94.209 95.344h152.285v-229.263c0-40.449 32.326-73.145 72.223-73.145h74.94c39.897 0 72.249 32.694 72.249 73.145v229.263h163.162c51.961 0 94.21-42.739 94.21-95.344v-307.529c0.001-8.66-4.144-16.863-11.081-22.051z" p-id="2024" fill="#aaa9b7"></path></svg>