<?xml version="1.0" standalone="no"?><!DOCTYPE svg PUBLIC "-//W3C//DTD SVG 1.1//EN" "http://www.w3.org/Graphics/SVG/1.1/DTD/svg11.dtd"><svg t="1511935539100" class="icon" style="" viewBox="0 0 1024 1024" version="1.1" xmlns="http://www.w3.org/2000/svg" p-id="3032" xmlns:xlink="http://www.w3.org/1999/xlink" width="200" height="200"><defs><style type="text/css"></style></defs><path d="M999.062842 878.385841 754.091693 633.314152c-2.844383-2.817494-6.013771-4.999006-8.998444-7.361725 41.355197-63.494152 65.536542-139.156136 65.536542-220.642499C810.628623 181.433741 629.220602 0 405.31285 0 181.523176 0 0.004092 181.433741 0.004092 405.308758c0 223.907752 181.519084 405.315773 405.308758 405.315773 81.427909 0 157.175236-24.233954 220.778113-65.623055 2.337 3.086383 4.434338 6.143539 7.253001 8.949342L878.349015 999.034199c16.734276 16.661793 38.507307 24.965801 60.325933 24.965801 21.85019 0 43.669985-8.305177 60.363343-24.94125C1032.310438 965.715289 1032.310438 911.715273 999.062842 878.385841M405.31285 682.631984c-152.882357 0-277.323226-124.439699-277.323226-277.323226 0-152.876512 124.439699-277.316211 277.323226-277.316211 152.883527 0 277.323226 124.439699 277.323226 277.316211C682.637245 558.192285 558.196377 682.631984 405.31285 682.631984" p-id="3033" fill="#aaa9b7"></path></svg>