<?xml version="1.0" standalone="no"?><!DOCTYPE svg PUBLIC "-//W3C//DTD SVG 1.1//EN" "http://www.w3.org/Graphics/SVG/1.1/DTD/svg11.dtd"><svg t="1511936622980" class="icon" style="" viewBox="0 0 1024 1024" version="1.1" xmlns="http://www.w3.org/2000/svg" p-id="10153" xmlns:xlink="http://www.w3.org/1999/xlink" width="200" height="200"><defs><style type="text/css"></style></defs><path d="M894.8 697.1c-6.9-9.6-30.5-38.6-82.4-66.5-76-40.9-177.1-61.8-300.6-62.3-67.4-0.3-128.9 5.9-183 18.4-44.2 10.2-83.8 24.5-117.4 42.7-50.7 27.4-74.3 56-81.7 66.3-21.9 24-33.4 62.2-33.4 88.4v99.6c0 40.1 32.5 72.8 72.4 72.8h686c39.9 0 72.4-32.7 72.4-72.8v-99.6c0-29-13.5-65.1-32.3-87z m-36.9 186.6c0 2-1.9 3.6-3.2 3.6h-686c-1.8 0-3.2-1.5-3.2-3.6v-99.6c0-13 8-34.4 15.8-42.3l2.6-2.2 2.1-3.7c1.9-2.7 19.3-25.8 64.1-48.7 44.5-22.7 125.2-49.7 258.1-49.7h3.4c135 0.5 217.1 28 262.1 50.9 45 22.9 62.6 45.9 64.6 48.7l1.1 1.9 2.5 2.8c8.1 8.8 16 29.8 16 42.3v99.6zM512.9 529.1c125.7 0 228-103.7 228-231.3S638.6 66.6 512.9 66.6s-228 103.7-228 231.3 102.3 231.2 228 231.2z m0-393.3c87.5 0 158.8 72.7 158.8 162s-71.2 162-158.8 162c-87.5 0-158.8-72.7-158.8-162s71.3-162 158.8-162z" p-id="10154" fill="#aaa9b7"></path></svg>