<?xml version="1.0" standalone="no"?><!DOCTYPE svg PUBLIC "-//W3C//DTD SVG 1.1//EN" "http://www.w3.org/Graphics/SVG/1.1/DTD/svg11.dtd"><svg t="1511957297520" class="icon" style="" viewBox="0 0 1025 1024" version="1.1" xmlns="http://www.w3.org/2000/svg" p-id="34595" xmlns:xlink="http://www.w3.org/1999/xlink" width="200.1953125" height="200"><defs><style type="text/css"></style></defs><path d="M846.56 227.33h-83.758l-27.92-55.638c-16.464-32.373-25.008-42.335-55.837-42.335H344.013c-30.85 0-41.03 13.252-55.838 42.335l-27.92 55.637h-83.759c-61.678 0-111.678 49.799-111.678 111.252V783.66c0 61.453 50 111.273 111.678 111.273h670.065c61.68 0 111.677-49.819 111.677-111.273V338.58c0-61.453-49.999-111.252-111.678-111.252z m55.84 562.982c0 30.738-25.01 55.636-55.839 55.636H176.494c-30.85 0-55.837-24.898-55.837-55.636V345.233c0-30.715 24.988-55.635 55.837-55.635h111.678l27.919-55.617c19.73-32.372 24.988-55.639 55.837-55.639h279.196c30.829 0 36.085 23.267 55.837 55.639l27.919 55.617h111.678c30.829 0 55.839 24.922 55.839 55.635v445.079h0.003z" p-id="34596" fill="#abaaba"></path><path d="M511.528 323.59c-123.356 0-223.356 99.645-223.356 222.553 0 122.885 100 222.526 223.356 222.526s223.356-99.641 223.356-222.526c0-122.908-100-222.553-223.356-222.553z m0 389.44c-92.528 0-167.515-74.72-167.515-166.889 0-92.171 74.987-166.912 167.515-166.912 92.506 0 167.515 74.74 167.515 166.912 0.001 92.17-75.008 166.889-167.515 166.889z" p-id="34597" fill="#abaaba"></path></svg>