<?xml version="1.0" standalone="no"?><!DOCTYPE svg PUBLIC "-//W3C//DTD SVG 1.1//EN" "http://www.w3.org/Graphics/SVG/1.1/DTD/svg11.dtd"><svg t="1511960454841" class="icon" style="" viewBox="0 0 1024 1024" version="1.1" xmlns="http://www.w3.org/2000/svg" p-id="72005" xmlns:xlink="http://www.w3.org/1999/xlink" width="200" height="200"><defs><style type="text/css"></style></defs><path d="M722.9 871.2h-252c-16.6 0-30-13.7-30-30.5 0-16.9 13.4-30.5 30-30.5h252c1.8 0 4.5-0.4 7.4-2.3 2.7-1.9 4.1-4.3 4.7-6.1l108.8-251.7c6.9-15.7 5.4-33.7-3.7-48.1-9.2-14.4-24.8-23-41.6-23H640.3c-13.3 0-24.8-8.8-28.6-21.7-3.7-12.9 1.2-26.8 12.2-34.2C649.4 406 674.4 311 653.8 248c-11.6-35.7-30.1-34.6-38.1-34.2l-8.8 0.1c-11.7 0-22.8 4.6-31.1 13.1S563 246.7 563 258.7v41.6c0 48.4-18.6 94-52.2 128.2-29.7 30.4-68.2 48.7-109.6 52.4V812c0 15.8-6 30.7-17 41.8-11 11.2-25.7 17.4-41.1 17.4h-96.5c-14.9 0-29-6-39.5-16.7s-16.3-25-16.3-40.2V483c0-16.6 6.3-32.3 17.8-44 11.6-11.8 26.9-18.2 43.2-18.2H385c31.6 0 61.2-12.6 83.5-35.3 22.2-22.8 34.5-53 34.5-85.2v-41.6c0-28.3 10.8-54.9 30.4-74.8 19.7-20 45.6-31 73.3-31h7c44.4-2.6 80 25 96.6 75.8 17.2 52.9 12.4 132.8-12.2 189.4h100c37.1 0.1 71.4 19 91.6 50.6 20.3 31.7 23.5 71.3 8.5 105.8l-108 250.7c-4.9 12.7-14.1 24.5-26.3 33-12.2 8.6-26.4 13-41 13z m-472.3-60.9h90.8V481.6H252l-1.4 328.7z" p-id="72006" fill="#abaaba"></path></svg>