<?xml version="1.0" standalone="no"?><!DOCTYPE svg PUBLIC "-//W3C//DTD SVG 1.1//EN" "http://www.w3.org/Graphics/SVG/1.1/DTD/svg11.dtd"><svg t="1511936338118" class="icon" style="" viewBox="0 0 1024 1024" version="1.1" xmlns="http://www.w3.org/2000/svg" p-id="5038" xmlns:xlink="http://www.w3.org/1999/xlink" width="200" height="200"><defs><style type="text/css"></style></defs><path d="M263.944949 332.303338l201.536063-185.6697 0 443.10898c0 27.79709 20.816095 50.358945 46.52257 50.358945 25.707498 0 46.540989-22.561855 46.540989-50.358945L558.544571 144.592143l190.30016 187.711196c17.110703 16.761756 44.794206 16.761756 61.866023 0 17.08819-16.779152 17.08819-43.976584 0-60.738339 0 0-259.429611-245.327428-263.516696-249.349021C538.933931 14.078647 525.946129 7.163143 511.42746 7.163143c-17.316387 0-29.206182 7.689123-36.0828 14.453177L202.098369 271.563976c-17.069771 16.762779-17.069771 43.959188 0 60.737316C219.187583 349.065094 246.875179 349.065094 263.944949 332.303338zM1023.93809 500.480642c0-25.705452-20.834514-46.538943-46.539966-46.538943s-46.523593 20.833491-46.523593 46.538943c0 3.846608-0.164752 11.154038-0.164752 11.154038-6.187933 215.886909-191.294814 389.082506-418.687778 389.082506-227.427756 0-412.546917-173.22118-418.704151-389.134695 0 0-0.166799-7.274684-0.166799-11.101849 0-25.705452-20.835538-46.538943-46.521546-46.538943-25.724895 0-46.540989 20.833491-46.540989 46.538943 0 3.825119 0 16.101723 0 18.61394 0 272.454252 229.17147 493.318522 511.916089 493.318522 282.745642 0 511.934508-220.86427 511.934508-493.318522C1023.93809 516.604878 1023.93809 504.328273 1023.93809 500.480642z" p-id="5039" fill="#aaa9b7"></path></svg>